<svg width="1947" height="430" viewBox="0 0 1947 430" fill="none" xmlns="http://www.w3.org/2000/svg">
<path d="M111.798 108.829C114.867 107 118.76 109.212 118.76 112.785V268.853C118.76 270.507 119.648 272.035 121.085 272.854L214.024 325.806C215.464 326.627 217.235 326.609 218.66 325.761L308.993 271.944C310.387 271.114 311.241 269.611 311.241 267.988V161.141C311.241 159.49 310.357 157.965 308.924 157.145L219.537 105.974C218.136 105.171 216.417 105.162 215.007 105.948L176.667 127.329C173.598 129.04 169.82 126.821 169.82 123.307V80.0176C169.82 78.3714 170.699 76.8504 172.125 76.0283L214.96 51.3372C216.394 50.5105 218.161 50.5173 219.589 51.3549L356.426 131.628C357.836 132.454 358.701 133.966 358.701 135.599V295.301C358.701 296.947 357.822 298.469 356.396 299.291L218.632 378.687C217.221 379.501 215.485 379.508 214.066 378.706L73.6379 299.284C72.1932 298.467 71.3 296.936 71.3 295.276V135.578C71.3 133.956 72.1539 132.453 73.5476 131.623L111.798 108.829Z" fill="#333333"/>
<path d="M261.536 241.829V188.171L215.001 161.309L168.466 188.171V241.829L215.001 268.691L261.536 241.829Z" fill="#FD6727"/>
<path d="M460.001 318V111.6H556.001C569.601 111.6 580.401 113.7 588.401 117.9C596.401 122.1 602.101 128.1 605.501 135.9C608.901 143.5 610.601 152.7 610.601 163.5C610.601 172.3 609.401 180.1 607.001 186.9C604.601 193.5 600.801 198.9 595.601 203.1C590.601 207.3 583.901 210.3 575.501 212.1V213.3C585.701 215.1 593.501 218.4 598.901 223.2C604.301 227.8 608.001 233.6 610.001 240.6C612.001 247.6 613.001 255.3 613.001 263.7C613.001 270.9 612.101 277.8 610.301 284.4C608.701 291 605.801 296.8 601.601 301.8C597.601 306.8 591.801 310.8 584.201 313.8C576.601 316.6 566.801 318 554.801 318H460.001ZM485.801 295.8H548.801C558.601 295.8 566.301 294.7 571.901 292.5C577.501 290.1 581.401 286.3 583.601 281.1C586.001 275.7 587.201 268.8 587.201 260.4C587.201 251.8 585.901 244.9 583.301 239.7C580.901 234.3 576.901 230.5 571.301 228.3C565.701 225.9 558.201 224.7 548.801 224.7H485.801V295.8ZM485.801 202.2H547.601C556.001 202.2 562.901 201 568.301 198.6C573.901 196.2 578.001 192.5 580.601 187.5C583.401 182.3 584.801 175.9 584.801 168.3C584.801 159.9 583.701 153.2 581.501 148.2C579.501 143.2 575.801 139.6 570.401 137.4C565.001 135 557.401 133.8 547.601 133.8H485.801V202.2ZM664.493 318V111.6H690.293V295.2H786.593V318H664.493ZM902.419 320.4C888.219 320.4 876.319 319.6 866.719 318C857.319 316.2 849.719 313.3 843.919 309.3C838.119 305.3 833.719 299.8 830.719 292.8C827.719 285.6 825.719 276.7 824.719 266.1C823.719 255.5 823.219 242.7 823.219 227.7V111.6H849.019V237.9C849.019 250.5 849.519 260.7 850.519 268.5C851.519 276.3 853.619 282.4 856.819 286.8C860.219 291.2 865.519 294.2 872.719 295.8C879.919 297.4 889.819 298.2 902.419 298.2C915.019 298.2 924.819 297.4 931.819 295.8C939.019 294.2 944.219 291.2 947.419 286.8C950.819 282.4 952.919 276.3 953.719 268.5C954.519 260.7 954.919 250.5 954.919 237.9V111.6H980.719V227.7C980.719 242.7 980.219 255.5 979.219 266.1C978.419 276.7 976.519 285.6 973.519 292.8C970.719 299.8 966.419 305.3 960.619 309.3C954.819 313.3 947.119 316.2 937.519 318C928.119 319.6 916.419 320.4 902.419 320.4ZM1038.32 318V111.6H1172.42V133.8H1064.12V202.5H1158.32V225H1064.12V295.8H1172.42V318H1038.32ZM1197.48 318L1275.48 111.6H1307.88L1385.58 318H1358.88L1337.58 261.6H1244.88L1223.58 318H1197.48ZM1252.68 239.1H1329.78L1291.98 138H1290.48L1252.68 239.1ZM1424.16 318V111.6H1449.96V201.9H1486.86L1557.66 111.6H1586.16L1507.86 211.8L1587.06 318H1557.06L1486.86 224.4H1449.96V318H1424.16ZM1625.14 318V111.6H1650.94V318H1625.14ZM1788.38 320.4C1772.38 320.4 1759.08 319.6 1748.48 318C1738.08 316.2 1729.78 313.1 1723.58 308.7C1717.58 304.3 1713.18 298.2 1710.38 290.4C1707.58 282.4 1705.78 272.3 1704.98 260.1C1704.18 247.7 1703.78 232.6 1703.78 214.8C1703.78 197 1704.18 182 1704.98 169.8C1705.78 157.4 1707.58 147.3 1710.38 139.5C1713.18 131.5 1717.58 125.3 1723.58 120.9C1729.78 116.5 1738.08 113.5 1748.48 111.9C1759.08 110.1 1772.38 109.2 1788.38 109.2C1804.38 109.2 1817.58 110.1 1827.98 111.9C1838.58 113.5 1846.88 116.5 1852.88 120.9C1859.08 125.3 1863.58 131.5 1866.38 139.5C1869.18 147.3 1870.98 157.4 1871.78 169.8C1872.58 182 1872.98 197 1872.98 214.8C1872.98 232.6 1872.58 247.7 1871.78 260.1C1870.98 272.3 1869.18 282.4 1866.38 290.4C1863.58 298.2 1859.08 304.3 1852.88 308.7C1846.88 313.1 1838.58 316.2 1827.98 318C1817.58 319.6 1804.38 320.4 1788.38 320.4ZM1788.38 298.2C1799.38 298.2 1808.48 297.9 1815.68 297.3C1822.88 296.5 1828.58 294.8 1832.78 292.2C1836.98 289.6 1840.18 285.4 1842.38 279.6C1844.58 273.6 1845.88 265.4 1846.28 255C1846.88 244.6 1847.18 231.2 1847.18 214.8C1847.18 198.4 1846.88 185 1846.28 174.6C1845.88 164.2 1844.58 156.1 1842.38 150.3C1840.18 144.3 1836.98 140 1832.78 137.4C1828.58 134.8 1822.88 133.2 1815.68 132.6C1808.48 131.8 1799.38 131.4 1788.38 131.4C1777.38 131.4 1768.28 131.8 1761.08 132.6C1754.08 133.2 1748.38 134.8 1743.98 137.4C1739.78 140 1736.58 144.3 1734.38 150.3C1732.38 156.1 1731.08 164.2 1730.48 174.6C1729.88 185 1729.58 198.4 1729.58 214.8C1729.58 231.2 1729.88 244.6 1730.48 255C1731.08 265.4 1732.38 273.6 1734.38 279.6C1736.58 285.4 1739.78 289.6 1743.98 292.2C1748.38 294.8 1754.08 296.5 1761.08 297.3C1768.28 297.9 1777.38 298.2 1788.38 298.2Z" fill="black"/>
</svg>
