<svg width="2034" height="430" viewBox="0 0 2034 430" fill="none" xmlns="http://www.w3.org/2000/svg">
<path d="M111.798 108.829C114.867 107 118.76 109.212 118.76 112.785V268.853C118.76 270.507 119.648 272.035 121.085 272.854L214.024 325.806C215.464 326.627 217.235 326.609 218.66 325.761L308.993 271.944C310.387 271.114 311.241 269.611 311.241 267.988V161.141C311.241 159.49 310.357 157.965 308.924 157.145L219.537 105.974C218.136 105.171 216.417 105.162 215.007 105.948L176.667 127.329C173.598 129.04 169.82 126.821 169.82 123.307V80.0176C169.82 78.3714 170.699 76.8504 172.125 76.0283L214.96 51.3372C216.394 50.5105 218.161 50.5173 219.589 51.3549L356.426 131.628C357.836 132.454 358.701 133.966 358.701 135.599V295.301C358.701 296.947 357.822 298.469 356.396 299.291L218.632 378.687C217.221 379.501 215.485 379.508 214.066 378.706L73.6379 299.284C72.1932 298.467 71.3 296.936 71.3 295.276V135.578C71.3 133.956 72.1539 132.453 73.5476 131.623L111.798 108.829Z" fill="white"/>
<path d="M261.536 241.829V188.171L215.001 161.309L168.466 188.171V241.829L215.001 268.691L261.536 241.829Z" fill="white"/>
<path d="M460.001 318V111.6H556.001C569.601 111.6 580.401 113.7 588.401 117.9C596.401 122.1 602.101 128.1 605.501 135.9C608.901 143.5 610.601 152.7 610.601 163.5C610.601 172.3 609.401 180.1 607.001 186.9C604.601 193.5 600.801 198.9 595.601 203.1C590.601 207.3 583.901 210.3 575.501 212.1V213.3C585.701 215.1 593.501 218.4 598.901 223.2C604.301 227.8 608.001 233.6 610.001 240.6C612.001 247.6 613.001 255.3 613.001 263.7C613.001 270.9 612.101 277.8 610.301 284.4C608.701 291 605.801 296.8 601.601 301.8C597.601 306.8 591.801 310.8 584.201 313.8C576.601 316.6 566.801 318 554.801 318H460.001ZM485.801 295.8H548.801C558.601 295.8 566.301 294.7 571.901 292.5C577.501 290.1 581.401 286.3 583.601 281.1C586.001 275.7 587.201 268.8 587.201 260.4C587.201 251.8 585.901 244.9 583.301 239.7C580.901 234.3 576.901 230.5 571.301 228.3C565.701 225.9 558.201 224.7 548.801 224.7H485.801V295.8ZM485.801 202.2H547.601C556.001 202.2 562.901 201 568.301 198.6C573.901 196.2 578.001 192.5 580.601 187.5C583.401 182.3 584.801 175.9 584.801 168.3C584.801 159.9 583.701 153.2 581.501 148.2C579.501 143.2 575.801 139.6 570.401 137.4C565.001 135 557.401 133.8 547.601 133.8H485.801V202.2ZM708.593 318V134.4H643.493V111.6H799.793V134.4H734.393V318H708.593ZM834.61 318V165H856.51L857.71 194.4H859.51C862.11 185.8 865.81 179.2 870.61 174.6C875.41 170 881.21 166.9 888.01 165.3C894.81 163.5 902.31 162.6 910.51 162.6V186.6C896.71 186.6 886.11 188.8 878.71 193.2C871.31 197.6 866.21 204.4 863.41 213.6C860.61 222.8 859.21 234.4 859.21 248.4V318H834.61ZM982.936 320.4C971.736 320.4 962.336 319.1 954.736 316.5C947.336 313.9 941.736 309.4 937.936 303C934.336 296.6 932.536 287.6 932.536 276C932.536 264.4 933.836 255.3 936.436 248.7C939.236 241.9 944.036 237.1 950.836 234.3C957.636 231.5 967.136 230.1 979.336 230.1C981.336 230.1 984.436 230.2 988.636 230.4C993.036 230.4 998.036 230.5 1003.64 230.7C1009.24 230.7 1014.84 230.8 1020.44 231C1026.24 231 1031.54 231.1 1036.34 231.3V221.7C1036.34 212.7 1035.74 205.7 1034.54 200.7C1033.54 195.5 1031.34 191.7 1027.94 189.3C1024.54 186.7 1019.74 185.1 1013.54 184.5C1007.54 183.7 999.536 183.3 989.536 183.3C985.136 183.3 979.936 183.5 973.936 183.9C967.936 184.1 962.036 184.5 956.236 185.1C950.636 185.5 946.136 186 942.736 186.6V166.8C950.336 165.4 958.836 164.4 968.236 163.8C977.836 163 987.736 162.6 997.936 162.6C1008.74 162.6 1017.84 163.3 1025.24 164.7C1032.84 165.9 1038.94 167.9 1043.54 170.7C1048.34 173.5 1051.94 177.2 1054.34 181.8C1056.74 186.4 1058.34 192 1059.14 198.6C1060.14 205.2 1060.64 212.9 1060.64 221.7V318H1038.74L1037.84 296.4H1036.04C1032.84 303.4 1028.24 308.7 1022.24 312.3C1016.44 315.7 1010.04 317.9 1003.04 318.9C996.036 319.9 989.336 320.4 982.936 320.4ZM991.936 300.3C997.736 300.3 1003.14 300 1008.14 299.4C1013.14 298.6 1017.54 297.2 1021.34 295.2C1025.14 293.2 1028.14 290.2 1030.34 286.2C1032.54 282 1034.04 277.5 1034.84 272.7C1035.84 267.7 1036.34 261.9 1036.34 255.3V247.5H985.336C977.536 247.5 971.536 248.1 967.336 249.3C963.136 250.5 960.236 253 958.636 256.8C957.236 260.6 956.536 266.3 956.536 273.9C956.536 281.3 957.436 286.9 959.236 290.7C961.036 294.5 964.436 297.1 969.436 298.5C974.636 299.7 982.136 300.3 991.936 300.3ZM1112.64 318V165H1134.84L1135.74 186.9H1137.54C1139.74 182.1 1142.74 177.9 1146.54 174.3C1150.54 170.7 1155.84 167.9 1162.44 165.9C1169.24 163.7 1177.84 162.6 1188.24 162.6C1199.64 162.6 1208.74 163.8 1215.54 166.2C1222.34 168.6 1227.54 172.2 1231.14 177C1234.94 181.8 1237.44 188 1238.64 195.6C1239.84 203 1240.44 211.9 1240.44 222.3V318H1216.14V230.7C1216.14 220.3 1215.64 212.1 1214.64 206.1C1213.84 199.9 1212.14 195.3 1209.54 192.3C1206.94 189.1 1203.14 187 1198.14 186C1193.14 185 1186.54 184.5 1178.34 184.5C1168.54 184.5 1160.84 185.8 1155.24 188.4C1149.64 190.8 1145.54 194.4 1142.94 199.2C1140.34 203.8 1138.74 209.5 1138.14 216.3C1137.54 222.9 1137.24 230.5 1137.24 239.1V318H1112.64ZM1343.23 320.4C1337.43 320.4 1331.23 320.2 1324.63 319.8C1318.03 319.4 1311.53 318.9 1305.13 318.3C1298.73 317.9 1292.93 317.3 1287.73 316.5V296.7C1292.53 297.1 1297.13 297.5 1301.53 297.9C1306.13 298.3 1310.63 298.7 1315.03 299.1C1319.43 299.3 1323.83 299.5 1328.23 299.7C1332.63 299.7 1337.13 299.7 1341.73 299.7C1352.13 299.7 1359.63 299 1364.23 297.6C1369.03 296 1372.13 293.4 1373.53 289.8C1375.13 286.2 1375.93 281.5 1375.93 275.7C1375.93 269.1 1375.33 264.3 1374.13 261.3C1373.13 258.3 1371.23 256.4 1368.43 255.6C1365.83 254.6 1361.83 253.8 1356.43 253.2L1316.83 248.7C1307.43 247.7 1300.33 245.7 1295.53 242.7C1290.73 239.5 1287.43 235 1285.63 229.2C1283.83 223.4 1282.93 216.1 1282.93 207.3C1282.93 197.3 1284.33 189.3 1287.13 183.3C1289.93 177.3 1293.93 172.8 1299.13 169.8C1304.33 166.8 1310.63 164.9 1318.03 164.1C1325.43 163.1 1333.73 162.6 1342.93 162.6C1348.13 162.6 1353.63 162.8 1359.43 163.2C1365.23 163.6 1370.93 164.1 1376.53 164.7C1382.13 165.3 1386.93 166 1390.93 166.8V186.6C1385.73 185.8 1380.43 185.2 1375.03 184.8C1369.83 184.2 1364.43 183.8 1358.83 183.6C1353.43 183.4 1347.93 183.3 1342.33 183.3C1334.73 183.3 1328.23 183.7 1322.83 184.5C1317.43 185.3 1313.33 187.3 1310.53 190.5C1307.93 193.7 1306.63 199 1306.63 206.4C1306.63 212.2 1307.03 216.6 1307.83 219.6C1308.83 222.4 1310.73 224.4 1313.53 225.6C1316.33 226.6 1320.23 227.4 1325.23 228L1366.63 232.5C1374.83 233.3 1381.23 234.9 1385.83 237.3C1390.63 239.5 1394.03 243.5 1396.03 249.3C1398.23 255.1 1399.33 263.8 1399.33 275.4C1399.33 285 1398.13 292.8 1395.73 298.8C1393.53 304.6 1390.03 309.1 1385.23 312.3C1380.43 315.5 1374.53 317.6 1367.53 318.6C1360.53 319.8 1352.43 320.4 1343.23 320.4ZM1441.93 377.7V165H1464.13L1465.03 186.9H1466.83C1469.83 180.1 1473.93 174.9 1479.13 171.3C1484.33 167.7 1490.23 165.4 1496.83 164.4C1503.43 163.2 1510.23 162.6 1517.23 162.6C1528.23 162.6 1537.33 163.8 1544.53 166.2C1551.93 168.6 1557.73 172.8 1561.93 178.8C1566.13 184.6 1569.13 192.6 1570.93 202.8C1572.73 213 1573.63 225.8 1573.63 241.2C1573.63 256.8 1572.73 269.8 1570.93 280.2C1569.33 290.4 1566.43 298.4 1562.23 304.2C1558.03 310 1552.33 314.2 1545.13 316.8C1537.93 319.2 1528.83 320.4 1517.83 320.4C1509.63 320.4 1502.33 319.7 1495.93 318.3C1489.53 317.1 1483.93 314.9 1479.13 311.7C1474.53 308.5 1470.83 304.1 1468.03 298.5H1466.53V377.7H1441.93ZM1507.63 298.5C1516.83 298.5 1524.13 297.9 1529.53 296.7C1535.13 295.5 1539.33 293 1542.13 289.2C1544.93 285.2 1546.83 279.5 1547.83 272.1C1548.83 264.5 1549.33 254.3 1549.33 241.5C1549.33 228.7 1548.83 218.5 1547.83 210.9C1546.83 203.3 1544.93 197.6 1542.13 193.8C1539.33 190 1535.13 187.5 1529.53 186.3C1524.13 184.9 1516.83 184.2 1507.63 184.2C1497.43 184.2 1489.33 185.7 1483.33 188.7C1477.53 191.5 1473.33 196 1470.73 202.2C1468.73 207 1467.53 212.7 1467.13 219.3C1466.73 225.9 1466.53 233.3 1466.53 241.5C1466.53 249.9 1466.73 257.3 1467.13 263.7C1467.53 269.9 1468.53 275.1 1470.13 279.3C1472.93 286.3 1477.33 291.3 1483.33 294.3C1489.33 297.1 1497.43 298.5 1507.63 298.5ZM1679.49 320.4C1666.89 320.4 1656.39 319.6 1647.99 318C1639.79 316.6 1633.29 314.2 1628.49 310.8C1623.69 307.4 1620.09 302.7 1617.69 296.7C1615.49 290.7 1614.09 283.2 1613.49 274.2C1612.89 265 1612.59 254.1 1612.59 241.5C1612.59 228.9 1612.89 218.1 1613.49 209.1C1614.09 199.9 1615.49 192.3 1617.69 186.3C1620.09 180.3 1623.69 175.6 1628.49 172.2C1633.29 168.8 1639.79 166.4 1647.99 165C1656.39 163.4 1666.89 162.6 1679.49 162.6C1692.29 162.6 1702.79 163.4 1710.99 165C1719.19 166.4 1725.69 168.8 1730.49 172.2C1735.49 175.6 1739.09 180.3 1741.29 186.3C1743.69 192.3 1745.19 199.9 1745.79 209.1C1746.39 218.1 1746.69 228.9 1746.69 241.5C1746.69 254.1 1746.39 265 1745.79 274.2C1745.19 283.2 1743.69 290.7 1741.29 296.7C1739.09 302.7 1735.49 307.4 1730.49 310.8C1725.69 314.2 1719.19 316.6 1710.99 318C1702.79 319.6 1692.29 320.4 1679.49 320.4ZM1679.49 299.7C1690.29 299.7 1698.59 299 1704.39 297.6C1710.19 296.2 1714.29 293.5 1716.69 289.5C1719.29 285.5 1720.79 279.7 1721.19 272.1C1721.79 264.3 1722.09 254.1 1722.09 241.5C1722.09 228.9 1721.79 218.8 1721.19 211.2C1720.79 203.4 1719.29 197.5 1716.69 193.5C1714.29 189.5 1710.19 186.8 1704.39 185.4C1698.59 184 1690.29 183.3 1679.49 183.3C1668.89 183.3 1660.59 184 1654.59 185.4C1648.79 186.8 1644.69 189.5 1642.29 193.5C1639.89 197.5 1638.39 203.4 1637.79 211.2C1637.19 218.8 1636.89 228.9 1636.89 241.5C1636.89 254.1 1637.19 264.3 1637.79 272.1C1638.39 279.7 1639.89 285.5 1642.29 289.5C1644.69 293.5 1648.79 296.2 1654.59 297.6C1660.59 299 1668.89 299.7 1679.49 299.7ZM1792.03 318V165H1813.93L1815.13 194.4H1816.93C1819.53 185.8 1823.23 179.2 1828.03 174.6C1832.83 170 1838.63 166.9 1845.43 165.3C1852.23 163.5 1859.73 162.6 1867.93 162.6V186.6C1854.13 186.6 1843.53 188.8 1836.13 193.2C1828.73 197.6 1823.63 204.4 1820.83 213.6C1818.03 222.8 1816.63 234.4 1816.63 248.4V318H1792.03ZM1915.09 318V185.7H1884.19V165H1915.09V120.6H1939.39V165H1975.99V185.7H1939.39V318H1915.09Z" fill="white"/>
</svg>
